<svg width="38" height="32" viewBox="0 0 38 32" fill="none" xmlns="http://www.w3.org/2000/svg">
<path d="M25.1313 0.0344179C24.9395 -0.0551084 24.786 0.0344178 24.786 0.251839V26.2017L36.1558 31.8802C36.7186 32.1616 37.179 31.8802 37.179 31.2407V6.26289C37.179 6.13499 37.1151 6.01989 36.9999 5.96873L25.1313 0.0344179Z" fill="#D0D2D3"/>
<path d="M12.3929 20.0116L24.5813 0.200705C24.6964 0.0216522 24.9394 -0.0550846 25.1313 0.0472311L36.9104 5.93039C37.051 6.00712 37.115 6.18617 37.0255 6.32686L24.7859 26.2017L12.3929 20.0116Z" fill="#A6A8AB"/>
<path d="M1.36844 0.55879C0.613858 0.175106 0.358069 0.456474 0.8057 1.18547L12.393 20.0116L24.7859 26.2145L12.4697 6.19894C12.4185 6.10942 12.3418 6.04547 12.2523 5.99431L1.36844 0.55879Z" fill="#808184"/>
<path d="M12.393 31.2535C12.393 31.8802 11.9326 32.1743 11.3698 31.893L0.690631 26.547C0.306947 26.3551 0 25.8563 0 25.4343V0.635507C0 0.213455 0.306947 0.021613 0.690631 0.213455L12.2395 5.99429C12.329 6.04545 12.393 6.13498 12.393 6.23729V31.2535Z" fill="#58595B"/>
</svg>
